<svg width="99" height="30" viewBox="0 0 99 30" fill="none" xmlns="http://www.w3.org/2000/svg">
<path d="M23.2952 26.6095C22.0254 27.7016 20.6032 28.5397 19.0286 29.1238C17.454 29.7079 15.8222 30 14.1333 30C12.8381 30 11.5873 29.8286 10.381 29.4857C9.1873 29.1556 8.06349 28.6857 7.00952 28.0762C5.96825 27.454 5.01587 26.7111 4.15238 25.8476C3.28889 24.9841 2.54603 24.0317 1.92381 22.9905C1.31429 21.9365 0.838095 20.8127 0.495238 19.619C0.165079 18.4127 0 17.1619 0 15.8667C0 14.5714 0.165079 13.3206 0.495238 12.1143C0.838095 10.9079 1.31429 9.78413 1.92381 8.74286C2.54603 7.68889 3.28889 6.73016 4.15238 5.86667C5.01587 5.00317 5.96825 4.26667 7.00952 3.65714C8.06349 3.03492 9.1873 2.55873 10.381 2.22857C11.5873 1.88571 12.8381 1.71429 14.1333 1.71429C15.8222 1.71429 17.454 2.00635 19.0286 2.59048C20.6032 3.1619 22.0254 4 23.2952 5.10476L20.4 9.86667C19.6 9.00317 18.654 8.34286 17.5619 7.88571C16.4698 7.41587 15.327 7.18095 14.1333 7.18095C12.927 7.18095 11.7968 7.40952 10.7429 7.86667C9.68889 8.32381 8.76825 8.94603 7.98095 9.73333C7.19365 10.5079 6.57143 11.4286 6.11429 12.4952C5.65714 13.5492 5.42857 14.673 5.42857 15.8667C5.42857 17.0603 5.65714 18.1841 6.11429 19.2381C6.57143 20.2794 7.19365 21.1937 7.98095 21.981C8.76825 22.7683 9.68889 23.3905 10.7429 23.8476C11.7968 24.3048 12.927 24.5333 14.1333 24.5333C15.327 24.5333 16.4698 24.3048 17.5619 23.8476C18.654 23.3778 19.6 22.7111 20.4 21.8476L23.2952 26.6095Z" fill="#072AC8"/>
<path d="M32.0571 3.46667C32.0571 3.94921 31.9619 4.4 31.7714 4.81905C31.5937 5.2381 31.346 5.60635 31.0286 5.92381C30.7111 6.22857 30.3365 6.47619 29.9048 6.66667C29.4857 6.84444 29.0349 6.93333 28.5524 6.93333C28.0698 6.93333 27.6127 6.84444 27.181 6.66667C26.7619 6.47619 26.3937 6.22857 26.0762 5.92381C25.7714 5.60635 25.5238 5.2381 25.3333 4.81905C25.1556 4.4 25.0667 3.94921 25.0667 3.46667C25.0667 2.99683 25.1556 2.55238 25.3333 2.13333C25.5238 1.70159 25.7714 1.33333 26.0762 1.02857C26.3937 0.711111 26.7619 0.463492 27.181 0.285714C27.6127 0.0952381 28.0698 0 28.5524 0C29.0349 0 29.4857 0.0952381 29.9048 0.285714C30.3365 0.463492 30.7111 0.711111 31.0286 1.02857C31.346 1.33333 31.5937 1.70159 31.7714 2.13333C31.9619 2.55238 32.0571 2.99683 32.0571 3.46667ZM31.1619 29.4095H25.9238V9.00952H31.1619V29.4095Z" fill="#072AC8"/>
<path d="M40.3429 29.4095H35.1429V9.00952H36.4L38.1143 11.4286C38.9524 10.6667 39.9048 10.0825 40.9714 9.67619C42.0381 9.25714 43.1429 9.04762 44.2857 9.04762H48.8762V14.2286H44.2857C43.7397 14.2286 43.2254 14.3302 42.7429 14.5333C42.2603 14.7365 41.8413 15.0159 41.4857 15.3714C41.1302 15.727 40.8508 16.146 40.6476 16.6286C40.4444 17.1111 40.3429 17.6254 40.3429 18.1714V29.4095Z" fill="#072AC8"/>
<path d="M68.7429 13.0667L64.9333 16.8952C64.7429 16.3619 64.4825 15.8857 64.1524 15.4667C63.8222 15.0349 63.4476 14.673 63.0286 14.381C62.6222 14.0889 62.1778 13.8667 61.6952 13.7143C61.2127 13.5619 60.7175 13.4857 60.2095 13.4857C59.4984 13.4857 58.8254 13.6317 58.1905 13.9238C57.5683 14.2159 57.0222 14.6286 56.5524 15.1619C56.0952 15.6825 55.7333 16.3048 55.4667 17.0286C55.2 17.7524 55.0667 18.5524 55.0667 19.4286C55.0667 20.1397 55.2 20.8063 55.4667 21.4286C55.7333 22.0508 56.0952 22.5968 56.5524 23.0667C57.0222 23.5365 57.5683 23.9048 58.1905 24.1714C58.8254 24.4381 59.4984 24.5714 60.2095 24.5714C60.7175 24.5714 61.2063 24.5016 61.6762 24.3619C62.146 24.2222 62.5841 24.0254 62.9905 23.7714C63.4095 23.5048 63.7778 23.1873 64.0952 22.819C64.4254 22.4381 64.6921 22.019 64.8952 21.5619L68.7048 25.3905C68.2222 26.0762 67.6635 26.6921 67.0286 27.2381C66.4063 27.7841 65.727 28.2476 64.9905 28.6286C64.2667 29.0095 63.4984 29.2952 62.6857 29.4857C61.8857 29.6889 61.0603 29.7905 60.2095 29.7905C58.7746 29.7905 57.4222 29.5238 56.1524 28.9905C54.8952 28.4444 53.7905 27.7016 52.8381 26.7619C51.8984 25.8222 51.1556 24.7238 50.6095 23.4667C50.0635 22.2095 49.7905 20.8635 49.7905 19.4286C49.7905 17.8667 50.0635 16.4063 50.6095 15.0476C51.1556 13.6889 51.8984 12.5079 52.8381 11.5048C53.7905 10.4889 54.8952 9.68889 56.1524 9.10476C57.4222 8.52063 58.7746 8.22857 60.2095 8.22857C61.0603 8.22857 61.8921 8.33651 62.7048 8.55238C63.5302 8.76825 64.3111 9.08571 65.0476 9.50476C65.7968 9.91111 66.4825 10.4127 67.1048 11.0095C67.7397 11.6063 68.2857 12.2921 68.7429 13.0667Z" fill="#072AC8"/>
<path d="M76.5333 29.4095H71.2952V0.895238H76.5333V29.4095Z" fill="#072AC8"/>
<path d="M88.6286 24.419C88.8317 24.4825 89.0349 24.527 89.2381 24.5524C89.4413 24.5651 89.6444 24.5714 89.8476 24.5714C90.3556 24.5714 90.8444 24.5016 91.3143 24.3619C91.7841 24.2222 92.2222 24.0254 92.6286 23.7714C93.0476 23.5048 93.4159 23.1873 93.7333 22.819C94.0635 22.4381 94.3302 22.019 94.5333 21.5619L98.3429 25.3905C97.8603 26.0762 97.3016 26.6921 96.6667 27.2381C96.0444 27.7841 95.3651 28.2476 94.6286 28.6286C93.9048 29.0095 93.1365 29.2952 92.3238 29.4857C91.5238 29.6889 90.6984 29.7905 89.8476 29.7905C88.4127 29.7905 87.0603 29.5238 85.7905 28.9905C84.5333 28.4571 83.4286 27.7143 82.4762 26.7619C81.5365 25.8095 80.7937 24.6794 80.2476 23.3714C79.7016 22.0508 79.4286 20.6032 79.4286 19.0286C79.4286 17.4159 79.7016 15.9429 80.2476 14.6095C80.7937 13.2762 81.5365 12.1397 82.4762 11.2C83.4286 10.2603 84.5333 9.53016 85.7905 9.00952C87.0603 8.48889 88.4127 8.22857 89.8476 8.22857C90.6984 8.22857 91.5302 8.33016 92.3429 8.53333C93.1556 8.73651 93.9238 9.02857 94.6476 9.40952C95.3841 9.79048 96.0698 10.2603 96.7048 10.819C97.3397 11.3651 97.8984 11.981 98.381 12.6667L88.6286 24.419ZM91.2952 13.6952C91.054 13.6063 90.8127 13.5492 90.5714 13.5238C90.3429 13.4984 90.1016 13.4857 89.8476 13.4857C89.1365 13.4857 88.4635 13.619 87.8286 13.8857C87.2064 14.1397 86.6603 14.5079 86.1905 14.9905C85.7333 15.473 85.3714 16.0571 85.1048 16.7429C84.8381 17.4159 84.7048 18.1778 84.7048 19.0286C84.7048 19.219 84.7111 19.4349 84.7238 19.6762C84.7492 19.9175 84.781 20.1651 84.819 20.419C84.8698 20.6603 84.927 20.8952 84.9905 21.1238C85.054 21.3524 85.1365 21.5556 85.2381 21.7333L91.2952 13.6952Z" fill="#072AC8"/>
</svg>
